<svg height="512" viewBox="0 0 128 128" width="512" xmlns="http://www.w3.org/2000/svg"><g><g><path d="m103.454 84.7c-4.909-13.816-17.892-29.786-32.98-35.137l-12.948 1.65c-15.088 5.351-28.071 21.321-32.98 35.137a6.039 6.039 0 0 0 4.8 8 5.968 5.968 0 0 0 6.473-3.708 30.418 30.418 0 0 1 3.681-6.742l3.6 19.742a18.1 18.1 0 0 0 1.287 4.149 18.11 18.11 0 0 0 11.515 10l3.076.886a18.1 18.1 0 0 0 10.03 0l3.076-.886a18.11 18.11 0 0 0 11.515-10 18.1 18.1 0 0 0 1.287-4.149l3.848-21.042a30.268 30.268 0 0 1 3.452 6.4 5.968 5.968 0 0 0 6.473 3.708 6.039 6.039 0 0 0 4.795-8.008z" fill="#62e0da"/><g fill="#ffd5c8"><path d="m39.48 83.882.02.02a30.823 30.823 0 0 0 -3.69 6.75 5.958 5.958 0 0 1 -6.47 3.7 6.031 6.031 0 0 1 -4.79-8 58.978 58.978 0 0 1 6.41-12.63c.1-.16.2-.31.3-.47z"/><path d="m98.66 92.7a5.958 5.958 0 0 1 -6.47-3.7 30.139 30.139 0 0 0 -3.46-6.4l9.1-9.3c.16.24.3.48.45.72a57.644 57.644 0 0 1 5.17 10.68 6.031 6.031 0 0 1 -4.79 8z"/><path d="m79.187 120.887a7.42 7.42 0 0 1 -4.866-8.442l1.547-7.893a8.547 8.547 0 0 1 11.365-6.368 8.547 8.547 0 0 1 4.634 11.9l-3.659 7.163a7.42 7.42 0 0 1 -9.021 3.64z"/><path d="m48.813 120.887a7.42 7.42 0 0 0 4.866-8.442l-1.547-7.893a8.547 8.547 0 0 0 -11.365-6.368 8.547 8.547 0 0 0 -4.634 11.9l3.659 7.163a7.42 7.42 0 0 0 9.021 3.64z"/></g><circle cx="90.625" cy="35.882" fill="#e8b5ad" r="6.5"/><circle cx="37.375" cy="35.882" fill="#e8b5ad" r="6.5"/><circle cx="64" cy="40.57" fill="#ffd5c8" r="26.625"/></g><g fill="#2c0d12"><path d="m87.783 71.693a1.749 1.749 0 0 0 1.346-2.867c-1.29-1.554-2.648-3.04-4.035-4.418a1.75 1.75 0 1 0 -2.467 2.483c1.31 1.3 2.591 2.7 3.809 4.17a1.744 1.744 0 0 0 1.347.632z"/><path d="m30.55 74.51a1.751 1.751 0 0 0 2.432-.46c.605-.887 1.232-1.762 1.863-2.6a1.75 1.75 0 0 0 -2.8-2.106c-.664.882-1.323 1.8-1.96 2.735a1.75 1.75 0 0 0 .465 2.431z"/><path d="m105.1 84.324a67.1 67.1 0 0 0 -18.348-26.6 28.641 28.641 0 0 0 2.371-3.742 1.751 1.751 0 0 0 -3.1-1.631 24.991 24.991 0 0 1 -2.99 4.442c-.012.014-.028.024-.04.039s-.011.018-.017.026a24.768 24.768 0 1 1 5.444-11.318 1.75 1.75 0 0 0 3.435.667c.13-.665.227-1.339.308-2.016a8.247 8.247 0 0 0 -1.533-16.351 8.105 8.105 0 0 0 -1.33.115 28.412 28.412 0 0 0 -23.723-15.506 1.759 1.759 0 0 0 -.387-.046 2.5 2.5 0 0 1 -2.5-2.5 1.654 1.654 0 0 1 1.65-1.653.973.973 0 0 1 .972.971 1.75 1.75 0 1 0 3.5 0 4.477 4.477 0 0 0 -4.472-4.471 5.157 5.157 0 0 0 -5.152 5.15 5.964 5.964 0 0 0 .7 2.8 28.444 28.444 0 0 0 -21.188 15.255 8.105 8.105 0 0 0 -1.33-.115 8.242 8.242 0 0 0 -1.534 16.342 28.248 28.248 0 0 0 6.185 14.518 65.213 65.213 0 0 0 -6.692 6.61 1.75 1.75 0 0 0 2.633 2.306 61.68 61.68 0 0 1 6.44-6.347 28.345 28.345 0 0 0 40.098-.869 63.431 63.431 0 0 1 17.3 25.1 4.278 4.278 0 0 1 -7.98 3.081 32 32 0 0 0 -3.656-6.781l-.006-.007a39.88 39.88 0 0 0 -7.137-7.793 1.75 1.75 0 1 0 -2.262 2.671 36.8 36.8 0 0 1 6.114 6.564l-2.352 12.876a10.3 10.3 0 0 0 -10.371 8.313l-1.55 7.893a9.059 9.059 0 0 0 .042 3.655c-.345.125-.691.245-1.039.346l-3.075.881a16.271 16.271 0 0 1 -9.069 0l-3.065-.879c-.35-.1-.7-.222-1.044-.347a9.059 9.059 0 0 0 .042-3.655l-1.546-7.893a10.3 10.3 0 0 0 -10.372-8.312l-2.113-11.568a37.31 37.31 0 0 1 5.878-6.228 1.75 1.75 0 1 0 -2.258-2.674 40.6 40.6 0 0 0 -6.907 7.442 32.494 32.494 0 0 0 -3.9 7.15 4.22 4.22 0 0 1 -4.574 2.594 4.263 4.263 0 0 1 -3.4-5.683 54.264 54.264 0 0 1 3.825-8.328 1.75 1.75 0 0 0 -3.052-1.712 57.863 57.863 0 0 0 -4.073 8.871 7.765 7.765 0 0 0 6.184 10.314 7.746 7.746 0 0 0 8.36-4.8 25.6 25.6 0 0 1 1.156-2.58l1.444 7.89a10.288 10.288 0 0 0 -5.472 14.288l3.659 7.162a9.222 9.222 0 0 0 8.2 4.993 9.077 9.077 0 0 0 7.553-4.042c.477.177.959.339 1.446.48l3.065.879a19.752 19.752 0 0 0 11.009 0l3.076-.881c.484-.141.964-.3 1.44-.479a9.077 9.077 0 0 0 7.553 4.042 9.223 9.223 0 0 0 8.2-4.993l3.373-6.6a1.75 1.75 0 1 0 -3.118-1.592l-3.373 6.6a5.668 5.668 0 0 1 -10.61-3.669l1.547-7.893a6.8 6.8 0 0 1 13.115-.85 1.75 1.75 0 0 0 3.319-1.114 10.253 10.253 0 0 0 -6.072-6.332l1.661-9.1q.525 1.064.939 2.133a7.712 7.712 0 0 0 7.206 4.9 8.8 8.8 0 0 0 1.158-.089 7.782 7.782 0 0 0 6.182-10.32zm-9.72-48.234a4.723 4.723 0 0 1 -3.013 4.388 28.212 28.212 0 0 0 -1.608-9.125 4.749 4.749 0 0 1 4.621 4.737zm-62.76 0a4.749 4.749 0 0 1 4.621-4.737 28.205 28.205 0 0 0 -1.608 9.115 4.713 4.713 0 0 1 -3.013-4.378zm15.624 83.35a5.692 5.692 0 0 1 -6.893-2.781l-3.66-7.162a6.8 6.8 0 1 1 12.723-4.4l1.547 7.893a5.693 5.693 0 0 1 -3.717 6.45z"/><path d="m64 59.139c4.241 0 9.177-2.2 10.641-7.114a1.75 1.75 0 0 0 -3.354-1c-.95 3.187-4.345 4.613-7.287 4.613s-6.337-1.426-7.287-4.613a1.75 1.75 0 0 0 -3.354 1c1.464 4.914 6.4 7.114 10.641 7.114z"/><path d="m78.615 36.958a1.75 1.75 0 1 0 3.039-1.736 6.838 6.838 0 0 0 -12 0 1.75 1.75 0 1 0 3.039 1.736 3.341 3.341 0 0 1 5.921 0z"/><path d="m55.306 36.958a1.75 1.75 0 1 0 3.039-1.736 6.838 6.838 0 0 0 -12 0 1.75 1.75 0 1 0 3.039 1.736 3.341 3.341 0 0 1 5.921 0z"/></g></g></svg>