<svg height="512" viewBox="0 0 64 64" width="512" xmlns="http://www.w3.org/2000/svg"><g id="Filled_outline" data-name="Filled outline"><path d="m22 27h20v22h-20z" fill="#e33e5c"/><path d="m24 53h4a2 2 0 0 1 2 2v2a0 0 0 0 1 0 0h-8a0 0 0 0 1 0 0v-2a2 2 0 0 1 2-2z" fill="#f9bb4b"/><path d="m24 49h4v4h-4z" fill="#3e5496"/><path d="m22 57h8v4h-8z" fill="#f98c96"/><path d="m36 53h4a2 2 0 0 1 2 2v2a0 0 0 0 1 0 0h-8a0 0 0 0 1 0 0v-2a2 2 0 0 1 2-2z" fill="#f9bb4b"/><path d="m36 49h4v4h-4z" fill="#3e5496"/><path d="m34 57h8v4h-8z" fill="#f98c96"/><path d="m24 7h16v16h-16z" fill="#f98c96"/><path d="m26 3h12v4h-12z" fill="#e33e5c"/><path d="m27 23h10v4h-10z" fill="#3e5496"/><path d="m22 10h2a0 0 0 0 1 0 0v8a0 0 0 0 1 0 0h-2a2 2 0 0 1 -2-2v-4a2 2 0 0 1 2-2z" fill="#f9bb4b"/><path d="m42 10h2a0 0 0 0 1 0 0v8a0 0 0 0 1 0 0h-2a2 2 0 0 1 -2-2v-4a2 2 0 0 1 2-2z" fill="#f9bb4b" transform="matrix(-1 0 0 -1 84 28)"/><g fill="#d9176c"><path d="m35 10h2v2h-2z"/><path d="m27 10h2v2h-2z"/><path d="m28 19h8v4h-8z"/></g><rect fill="#fcf05a" height="4" rx="2" width="8" x="28" y="31"/><path d="m26 43h12v6h-12z" fill="#f98c96"/><path d="m25 38h2v2h-2z" fill="#f4f4e6"/><path d="m37 38h2v2h-2z" fill="#f4f4e6"/><path d="m8 21h8v6h-8z" fill="#f98c96"/><path d="m10 27h8v4h-8z" fill="#f9bb4b"/><path d="m18 27h4v4h-4z" fill="#3e5496"/><path d="m48 21h8v6h-8z" fill="#f98c96" transform="matrix(-1 0 0 -1 104 48)"/><path d="m46 27h8v4h-8z" fill="#f9bb4b" transform="matrix(-1 0 0 -1 100 58)"/><path d="m42 27h4v4h-4z" fill="#3e5496" transform="matrix(-1 0 0 -1 88 58)"/><path d="m31 12h2v4h-2z"/><path d="m35 10h2v2h-2z"/><path d="m27 10h2v2h-2z"/><path d="m34 30h-4a3 3 0 0 0 0 6h4a3 3 0 0 0 0-6zm0 4h-4a1 1 0 0 1 0-2h4a1 1 0 0 1 0 2z"/><path d="m25 38h2v2h-2z"/><path d="m37 38h2v2h-2z"/><path d="m55 28h2v-9a3 3 0 0 0 -3-3h-1v2h1a1 1 0 0 1 1 1v1h-6v-1a1 1 0 0 1 1-1h1v-2h-1a3 3 0 0 0 -3 3v7h-9v-2h3v-5h1a3 3 0 0 0 3-3v-4a3 3 0 0 0 -3-3h-1v-3h-2v-4h-14v4h-2v3h-1a3 3 0 0 0 -3 3v4a3 3 0 0 0 3 3h1v5h3v2h-9v-7a3 3 0 0 0 -3-3h-1v2h1a1 1 0 0 1 1 1v1h-6v-1a1 1 0 0 1 1-1h1v-2h-1a3 3 0 0 0 -3 3v9h2v4h12v18h2v2.184a3 3 0 0 0 -2 2.816v7h10v-7a3 3 0 0 0 -2-2.816v-2.184h6v2.184a3 3 0 0 0 -2 2.816v7h10v-7a3 3 0 0 0 -2-2.816v-2.184h2v-18h12zm-14-17h1a1 1 0 0 1 1 1v4a1 1 0 0 1 -1 1h-1zm-18 6h-1a1 1 0 0 1 -1-1v-4a1 1 0 0 1 1-1h1zm-14 5h6v4h-6zm8 8h-6v-2h6zm4 0h-2v-2h2zm6-26h10v2h-10zm-2 18v-14h14v14h-2v-4h-10v4zm11 2v2h-8v-2zm-7-2v-2h6v2zm0 38h-6v-2h6zm0-4h-6v-1a1 1 0 0 1 1-1h4a1 1 0 0 1 1 1zm-4-4v-2h2v2zm2-4v-4h10v4zm12 2v2h-2v-2zm2 10h-6v-2h6zm0-4h-6v-1a1 1 0 0 1 1-1h4a1 1 0 0 1 1 1zm0-8h-2v-6h-14v6h-2v-20h18zm4-18h-2v-2h2zm4-8h6v4h-6zm4 8h-6v-2h6z"/></g></svg>