<?xml version="1.0" encoding="iso-8859-1"?>
<!-- Generator: Adobe Illustrator 19.0.0, SVG Export Plug-In . SVG Version: 6.00 Build 0)  -->
<svg version="1.1" id="Capa_1" xmlns="http://www.w3.org/2000/svg" xmlns:xlink="http://www.w3.org/1999/xlink" x="0px" y="0px"
	 viewBox="0 0 512 512" style="enable-background:new 0 0 512 512;" xml:space="preserve">
<path style="fill:#3EAF91;" d="M353.581,240.251c-16.309,0-29.58-13.201-29.58-29.424c0-6.766,2.355-13.344,6.637-18.57l19-32.74
	c0.813-1.398,2.316-2.262,3.943-2.262l0,0c1.621,0,3.127,0.863,3.938,2.262l18.994,32.74c4.287,5.238,6.639,11.818,6.639,18.57
	C383.152,227.049,369.884,240.251,353.581,240.251z"/>
<g style="opacity:0.1;">
	<path d="M346.002,210.827c0-6.766,2.355-13.344,6.637-18.57l11.94-20.573l-7.059-12.167c-0.811-1.398-2.316-2.262-3.938-2.262
		c-1.627,0-3.131,0.863-3.943,2.262l-19,32.74c-4.281,5.227-6.637,11.805-6.637,18.57c0,16.223,13.272,29.424,29.58,29.424
		c3.886,0,7.596-0.758,10.998-2.119C353.703,233.778,346.002,223.182,346.002,210.827z"/>
</g>
<path style="fill:#FFAF68;" d="M394.527,368.792c-0.667-3.187-2.801-6.387-5.536-8.739H229.474c-5.5,0-10,4.5-10,10v15.666H398.07
	L394.527,368.792z"/>
<path style="opacity:0.1;enable-background:new    ;" d="M241.107,385.718v-15.666c0-5.5,4.5-10,10-10h-21.633c-5.5,0-10,4.5-10,10
	v15.666H241.107z"/>
<path style="fill:#FFAF68;" d="M393.927,413.704c5.5,0,9.078-4.404,7.951-9.788l-3.809-18.198H218.026c-5.5,0-10,4.5-10,10v17.986
	H393.927z"/>
<path style="opacity:0.1;enable-background:new    ;" d="M230.002,413.704v-17.986c0-5.5,4.5-10,10-10h-21.977c-5.5,0-10,4.5-10,10
	v17.986H230.002z"/>
<path style="fill:#FFCFAB;" d="M443.283,312.969l-117.211-15.026c-5.455-0.699-10.314,3.211-10.798,8.689l-2.059,23.33
	c-0.483,5.479,3.499,11.003,8.85,12.277l60.685,14.447c5.351,1.274,10.65,6.721,11.777,12.104l7.352,35.125
	c1.127,5.384-2.451,9.788-7.951,9.788H205.305c-5.5,0-10,4.5-10,10v23.25c0,5.5,4.5,10,10,10h237.977V312.969H443.283z"/>
<g style="opacity:0.1;">
	<path d="M222.32,446.954v-23.25c0-5.5,4.5-10,10-10h-27.014c-5.5,0-10,4.5-10,10v23.25c0,5.5,4.5,10,10,10h27.014
		C226.819,456.954,222.32,452.454,222.32,446.954z"/>
</g>
<path style="fill:#EF5A50;" d="M504.5,470.176c0,2.75-2.25,5-5,5h-51.219c-2.75,0-5-2.25-5-5v-175.28c0-2.75,2.25-5,5-5H499.5
	c2.75,0,5,2.25,5,5V470.176z"/>
<g style="opacity:0.1;">
	<path d="M465.001,470.176v-175.28c0-2.75,2.25-5,5-5h-21.719c-2.75,0-5,2.25-5,5v175.28c0,2.75,2.25,5,5,5h21.719
		C467.251,475.176,465.001,472.926,465.001,470.176z"/>
</g>
<rect x="265.14" y="70.422" transform="matrix(-0.7071 0.7071 -0.7071 -0.7071 537.0874 -61.0625)" style="fill:#E6E9ED;" width="32.099" height="20.562"/>
<path style="fill:#3EAF91;" d="M276.008,52.82c-1.944-1.944-1.944-5.126,0-7.07l7.469-7.469c1.945-1.944,5.127-1.944,7.071,0
	l52.247,52.248c1.944,1.944,1.944,5.126,0,7.07l-7.469,7.469c-1.944,1.944-5.126,1.944-7.07,0L276.008,52.82z"/>
<path style="fill:#ABCCD3;" d="M286.367,108.576L253.31,75.519c-1.945-1.944-5.126-1.944-7.071,0l-12.747,12.748l40.127,40.127
	l12.748-12.748C288.311,113.702,288.311,110.52,286.367,108.576z"/>
<path style="fill:#08375E;" d="M261.987,165.614l20.891-20.891c1.944-1.944,1.944-5.126,0-7.07l-58.645-58.646
	c-1.945-1.944-5.127-1.944-7.071,0l-20.891,20.891L261.987,165.614z"/>
<path style="opacity:0.1;enable-background:new    ;" d="M209.811,113.438l23.432-23.432c0.347-0.348,0.743-0.61,1.155-0.833
	l-10.165-10.166c-1.945-1.944-5.127-1.944-7.071,0l-20.891,20.891L209.811,113.438z"/>
<path style="fill:#E6E9ED;" d="M290.707,194.335L167.551,71.177c-4.035-4.035-10.638-4.035-14.672,0L10.53,213.526
	c-4.034,4.035-4.035,10.639,0.001,14.674l123.155,123.157c4.036,4.033,10.639,4.035,14.674-0.002l142.346-142.347
	C294.742,204.973,294.742,198.372,290.707,194.335z"/>
<path style="fill:#3EAF91;" d="M238.081,196c0.762,10.217-2.744,20.695-10.54,28.491l-86.822,86.82
	c-0.977,0.977-2.256,1.465-3.536,1.465c-1.28,0-2.559-0.488-3.536-1.465l-83.074-83.074c-0.938-0.938-1.464-2.209-1.464-3.535
	c0-1.326,0.527-2.598,1.464-3.535l86.821-86.821c6.88-6.88,16.027-10.669,25.756-10.669c0.912,0,1.817,0.044,2.718,0.11
	l-32.8-32.801L10.53,213.526c-4.034,4.035-4.035,10.639,0.001,14.674l123.155,123.157c4.036,4.033,10.639,4.035,14.674-0.002
	l122.538-122.538L238.081,196z"/>
<g style="opacity:0.1;">
	<path d="M24.575,231.637L168.912,87.299c3.79-3.79,9.814-4.062,13.933-0.827l-15.294-15.295c-4.035-4.035-10.638-4.035-14.672,0
		L10.53,213.526c-4.034,4.035-4.035,10.639,0.001,14.674l10.98,10.98C21.485,236.449,22.503,233.71,24.575,231.637z"/>
</g>
<path style="fill:#FFFFFF;" d="M137.184,312.776c-1.28,0-2.559-0.488-3.536-1.465l-83.074-83.074
	c-0.938-0.938-1.464-2.209-1.464-3.535c0-1.326,0.527-2.598,1.464-3.535l86.821-86.821c6.88-6.88,16.027-10.669,25.756-10.669
	c9.729,0,18.876,3.789,25.756,10.668l38.635,38.634c14.202,14.202,14.202,37.311,0,51.514l-86.822,86.82
	C139.743,312.288,138.463,312.776,137.184,312.776z"/>
<g style="opacity:0.1;">
	<path d="M61.469,238.523c-0.938-0.938-1.464-2.209-1.464-3.535s0.527-2.598,1.464-3.535l86.821-86.821
		c6.88-6.88,16.027-10.669,25.756-10.669c7.835,0,15.291,2.462,21.492,7.012l-6.63-6.63c-6.88-6.879-16.027-10.668-25.756-10.668
		c-9.729,0-18.876,3.789-25.756,10.669l-86.821,86.821c-0.938,0.938-1.464,2.209-1.464,3.535c0,1.326,0.527,2.598,1.464,3.535
		L61.469,238.523z"/>
</g>
<path style="fill:#3EAF91;" d="M191.932,220.149c1.945-1.944,1.945-5.126,0-7.07l-9.94-9.939c-1.944-1.944-1.945-5.126,0-7.07
	l9.94-9.941c1.945-1.944,1.945-5.126,0-7.07l-9.103-9.104c-1.945-1.944-5.127-1.944-7.071,0l-9.94,9.939
	c-1.944,1.944-5.126,1.944-7.071,0l-9.941-9.941c-1.945-1.944-5.126-1.944-7.071,0l-9.104,9.105c-1.944,1.944-1.944,5.126,0,7.07
	l9.94,9.941c1.944,1.944,1.944,5.126-0.001,7.07l-9.939,9.941c-1.944,1.944-1.944,5.126,0,7.07l9.104,9.102
	c1.944,1.944,5.127,1.944,7.071,0l9.939-9.938c1.944-1.944,5.127-1.944,7.071,0l9.94,9.939c1.944,1.944,5.126,1.944,7.071,0
	L191.932,220.149z"/>
<path d="M343.152,155.752l-18.714,32.249c-5.122,6.48-7.935,14.561-7.935,22.826c0,20.36,16.634,36.924,37.08,36.924
	c20.44,0,37.07-16.564,37.07-36.924c0-8.26-2.814-16.339-7.936-22.824l-18.708-32.247c-2.146-3.701-6.141-6.001-10.427-6.001
	C349.297,149.755,345.302,152.051,343.152,155.752z M370.026,196.02c0.201,0.347,0.43,0.677,0.684,0.986
	c3.188,3.895,4.942,8.803,4.942,13.82c0,12.089-9.9,21.924-22.07,21.924c-12.175,0-22.08-9.835-22.08-21.924
	c0-5.022,1.754-9.93,4.939-13.817c0.255-0.311,0.483-0.642,0.685-0.988l16.453-28.352L370.026,196.02z"/>
<path d="M499.5,282.396h-51.219c-6.893,0-12.5,5.608-12.5,12.5v9.551l-108.758-13.943c-4.684-0.598-9.27,0.688-12.919,3.625
	c-3.649,2.938-5.889,7.143-6.303,11.845l-2.059,23.33c-0.813,9.204,5.593,18.092,14.583,20.232l12.672,3.016H229.474
	c-9.649,0-17.5,7.851-17.5,17.5v9.268c-6.672,2.47-11.449,8.879-11.449,16.398v11.166c-7.33,2.087-12.721,8.829-12.721,16.82v23.25
	c0,9.65,7.851,17.5,17.5,17.5h46.697c4.142,0,7.501-3.357,7.501-7.5c0-4.142-3.358-7.5-7.501-7.5h-46.697
	c-1.355,0-2.5-1.145-2.5-2.5v-23.25c0-1.355,1.145-2.5,2.5-2.5h188.623c4.891,0,9.367-2.058,12.282-5.646
	c2.915-3.588,4.012-8.392,3.01-13.178l-7.352-35.126c-1.724-8.234-9.195-15.914-17.381-17.863l-60.686-14.447
	c-1.729-0.412-3.272-2.553-3.116-4.322l2.059-23.33c0.067-0.767,0.454-1.227,0.766-1.478c0.313-0.251,0.846-0.528,1.607-0.432
	l110.665,14.188v129.884h-143.78c-4.143,0-7.5,3.358-7.5,7.5c0,4.143,3.357,7.5,7.5,7.5h143.78v5.723c0,6.893,5.607,12.5,12.5,12.5
	H499.5c6.893,0,12.5-5.607,12.5-12.5V294.896C512,288.004,506.393,282.396,499.5,282.396z M229.474,367.552h156.331
	c0.686,0.913,1.194,1.885,1.381,2.775l1.651,7.891H226.974v-8.166C226.974,368.697,228.119,367.552,229.474,367.552z
	 M394.583,406.082c-0.041,0.032-0.249,0.122-0.656,0.122H215.526v-10.486c0-1.355,1.145-2.5,2.5-2.5h173.952l2.561,12.234
	C394.62,405.851,394.575,406.074,394.583,406.082z M497,467.676h-46.219v-170.28H497V467.676z"/>
<path d="M230.055,269.658c-2.929-2.928-7.678-2.928-10.606,0l-76.393,76.396c-1.102,1.101-2.965,1.101-4.066,0L15.834,222.896
	c-1.103-1.103-1.103-2.965-0.001-4.066l117.236-117.237l16.67,16.67c-6.583,2.103-12.619,5.751-17.647,10.778l-86.821,86.821
	c-2.361,2.361-3.661,5.5-3.661,8.839c0,3.339,1.3,6.478,3.661,8.839l83.074,83.074c2.361,2.36,5.501,3.661,8.839,3.661
	c3.339,0,6.477-1.301,8.839-3.661l86.822-86.82c5.025-5.025,8.67-11.064,10.769-17.655l16.677,16.678L247.7,241.409
	c-2.929,2.93-2.929,7.678,0,10.607c1.464,1.464,3.384,2.196,5.303,2.196s3.839-0.732,5.303-2.196l37.703-37.704
	c6.969-6.967,6.971-18.307,0.002-25.281l-23.417-23.417l15.587-15.587c4.873-4.874,4.873-12.804,0-17.678l-3.955-3.955l7.444-7.445
	c2.356-2.357,3.654-5.496,3.654-8.839c0-3.343-1.298-6.481-3.654-8.839l-3.955-3.955l12.092-12.091l23.146,23.146
	c2.357,2.356,5.496,3.654,8.839,3.654s6.481-1.298,8.839-3.654l7.469-7.469c2.356-2.357,3.654-5.496,3.654-8.839
	s-1.298-6.482-3.654-8.839l-52.247-52.248c-2.357-2.356-5.496-3.654-8.839-3.654c-3.342,0-6.48,1.297-8.84,3.654l-7.469,7.469
	c-2.356,2.357-3.654,5.496-3.654,8.839c0,3.343,1.298,6.481,3.654,8.839l3.955,3.955l-12.092,12.092l-3.955-3.955
	c-2.357-2.356-5.496-3.654-8.838-3.654c-3.342,0-6.481,1.298-8.839,3.655l-7.444,7.443l-3.957-3.956
	c-2.357-2.356-5.496-3.654-8.838-3.654c-3.342,0-6.481,1.298-8.839,3.654l-15.587,15.588l-23.417-23.417
	c-3.368-3.368-7.857-5.224-12.64-5.224c-4.783,0-9.271,1.855-12.639,5.223L5.226,208.223c-6.969,6.971-6.968,18.312,0.001,25.28
	l123.156,123.158c3.486,3.483,8.062,5.226,12.639,5.225c4.578,0,9.157-1.743,12.64-5.228l76.391-76.394
	C232.984,277.335,232.984,272.587,230.055,269.658z M222.239,219.187l-85.054,85.053l-79.539-79.538l85.054-85.053
	c5.464-5.464,12.728-8.473,20.453-8.473s14.989,3.009,20.453,8.472l38.635,38.634C233.516,189.558,233.516,207.91,222.239,219.187z
	 M287.012,45.352l48.712,48.712l-3.933,3.933l-48.712-48.712L287.012,45.352z M285.267,72.686l3.933,3.933l-12.091,12.092
	l-3.934-3.933L285.267,72.686z M249.774,82.59l29.521,29.521l-5.677,5.677l-29.52-29.521L249.774,82.59z M158.182,76.48
	c0.721-0.722,1.583-0.829,2.032-0.829c0.45,0,1.312,0.107,2.033,0.83l45.785,45.785c2.928,2.927,7.677,2.929,10.607,0
	c2.929-2.93,2.929-7.678,0-10.607l-11.76-11.761l13.819-13.819l55.109,55.11l-13.819,13.819l-17.679-17.68
	c-2.929-2.928-7.678-2.928-10.606,0c-2.929,2.93-2.929,7.678,0,10.607l51.701,51.701c1.103,1.104,1.104,2.967,0.001,4.068
	l-14.506,14.507l-25.637-25.638c-1.309-9.403-5.598-18.08-12.416-24.899l-38.635-38.634c-6.83-6.828-15.513-11.125-24.913-12.433
	l-25.621-25.622L158.182,76.48z"/>
<path d="M200.891,182.592c0-3.343-1.298-6.482-3.655-8.838l-9.104-9.104c-2.357-2.357-5.496-3.654-8.838-3.654
	c-3.343,0-6.482,1.298-8.839,3.654l-8.173,8.172l-8.173-8.174c-2.357-2.356-5.496-3.654-8.838-3.654
	c-3.343,0-6.481,1.298-8.839,3.655l-9.103,9.105c-4.873,4.874-4.873,12.804-0.001,17.677l8.172,8.174l-8.172,8.173
	c-2.357,2.358-3.655,5.497-3.655,8.84c0,3.342,1.298,6.48,3.656,8.838l9.103,9.102c2.357,2.356,5.496,3.654,8.839,3.654
	c3.342,0,6.481-1.298,8.838-3.654l8.172-8.171l8.173,8.173c2.357,2.356,5.496,3.654,8.839,3.654c3.342,0,6.481-1.298,8.839-3.655
	l9.103-9.104c2.357-2.356,3.656-5.496,3.656-8.839c0-3.343-1.298-6.482-3.655-8.839l-8.172-8.171l8.171-8.173
	C199.593,189.075,200.891,185.935,200.891,182.592z M176.689,208.443l8.172,8.171l-5.568,5.569l-8.173-8.172
	c-2.357-2.356-5.496-3.654-8.839-3.654c-3.343,0-6.482,1.298-8.838,3.654l-8.172,8.171l-5.568-5.567l8.17-8.172
	c2.357-2.356,3.656-5.496,3.656-8.839c0.001-3.343-1.298-6.482-3.654-8.838l-8.172-8.174l5.568-5.569l8.173,8.174
	c2.357,2.356,5.496,3.654,8.838,3.654c3.343,0,6.482-1.298,8.839-3.654l8.173-8.172l5.567,5.567l-8.171,8.173
	c-2.357,2.356-3.656,5.496-3.656,8.839C173.034,202.947,174.332,206.086,176.689,208.443z"/>
<path d="M104.869,226.43c-2.93-2.93-7.678-2.929-10.607-0.001c-2.929,2.929-2.929,7.678,0,10.606l30.585,30.588
	c1.465,1.465,3.384,2.197,5.304,2.197c1.919,0,3.839-0.732,5.303-2.196c2.929-2.929,2.929-7.678,0-10.607L104.869,226.43z"/>
<g>
</g>
<g>
</g>
<g>
</g>
<g>
</g>
<g>
</g>
<g>
</g>
<g>
</g>
<g>
</g>
<g>
</g>
<g>
</g>
<g>
</g>
<g>
</g>
<g>
</g>
<g>
</g>
<g>
</g>
</svg>
