<svg width="700" height="230" xmlns="http://www.w3.org/2000/svg">

 <g>
  <title>background</title>
  <rect fill="none" id="canvas_background" height="232" width="702" y="-1" x="-1"/>
 </g>
 <g>
  <title>Layer 1</title>
  <g stroke="null" id="svg_1">
   <g stroke="null" id="svg_2">
    <path stroke="null" id="svg_3" fill="#fce8d0" d="m183.699224,125.614916l0,-37.44825c0,-6.766083 5.429707,-12.25 12.128907,-12.25s12.128907,5.483917 12.128907,12.25l0,55.468c0,18.55875 -10.382344,35.525 -26.817013,43.826417l-21.698614,10.955583l0,24.5l-42.85547,0l0,-53.307917c0,-10.359417 7.770586,-19.0365 17.97504,-20.069583c0.046898,-0.013475 18.532161,-2.869767 27.43963,-11.866167l9.080508,-9.167083c3.389221,-3.423058 8.330942,-4.426742 12.618106,-2.891z"/>
    <path stroke="null" id="svg_4" fill="#ff7b79" d="m133.950492,35.083332c22.147384,0 29.865411,20.600417 29.865411,32.666667c0,24.5 -19.939922,38.420084 -55.3159,69.416667c-35.375978,-30.996584 -55.3159,-44.916667 -55.3159,-69.416667c0,-12.06625 7.718028,-32.666667 29.865411,-32.666667c13.596504,0 21.132598,10.024583 25.450489,18.003417c4.317891,-7.978833 11.853985,-18.003417 25.450489,-18.003417z"/>
    <path stroke="null" id="svg_5" fill="#fce8d0" d="m33.300782,125.614916c4.285547,-1.534925 9.227672,-0.533283 12.618106,2.891l9.080508,9.167083c8.729578,8.816733 27.398391,11.854325 27.43963,11.866167c10.204453,1.033083 17.97504,9.710167 17.97504,20.069583l0,53.307917l-42.85547,0l0,-24.5l-21.698614,-10.955583c-16.434668,-8.301417 -26.817013,-25.267667 -26.817013,-43.826417l0,-55.468c0,-6.766083 5.429707,-12.25 12.128907,-12.25s12.128907,5.483917 12.128907,12.25l0,37.44825z"/>
   </g>
   <g stroke="null" id="svg_6">
    <path stroke="null" id="svg_7" d="m167.858872,67.749999c0,-14.208367 -9.20584,-36.75 -33.90838,-36.75c-10.149469,0 -18.687006,4.832625 -25.450489,14.385175c-6.763483,-9.55255 -15.301424,-14.385175 -25.450489,-14.385175c-24.702944,0 -33.90838,22.541634 -33.90838,36.75c0,24.497142 18.929989,39.820667 44.790839,62.155275c3.799986,3.281367 7.729348,6.675025 11.918672,10.345942c0.760078,0.665992 1.704516,0.998783 2.649358,0.998783s1.889279,-0.332792 2.649358,-0.998783c4.189324,-3.670917 8.118686,-7.064575 11.918672,-10.345942c27.074145,-23.382392 44.790839,-38.1759 44.790839,-62.155275zm-59.358869,64.016867c-3.230736,-2.815867 -6.311883,-5.476975 -9.312979,-8.069075c-27.056356,-23.366059 -41.959952,-36.237542 -41.959952,-55.947792c0,-13.370058 8.660444,-28.583334 25.822442,-28.583334c8.956389,0 16.120934,5.194 21.903188,15.87845c0.708732,1.309933 2.069191,2.124967 3.547301,2.124967s2.838568,-0.815033 3.547301,-2.124967c5.782254,-10.68445 12.946799,-15.87845 21.903188,-15.87845c16.922251,0 25.822442,14.987467 25.822442,28.583334c0,19.71025 -14.903596,32.581734 -41.959952,55.9482c-3.001096,2.591692 -6.082242,5.2528 -9.312979,8.068667z"/>
    <path stroke="null" id="svg_8" d="m34.051966,191.113216l19.463661,9.827358l0,21.976092c0,2.254817 1.810441,4.083333 4.042969,4.083333l42.85547,0c2.232527,0 4.042969,-1.828517 4.042969,-4.083333l0,-53.307917c0,-12.510517 -9.291955,-22.885042 -21.583389,-24.129642l-0.330715,-0.035933c-7.114412,-0.7203 -19.711495,-5.635 -24.685559,-10.658317l-9.0797,-9.166675c-3.055272,-3.085367 -7.115625,-4.78485 -11.43392,-4.78485l0,-32.666667c0,-9.0062 -7.254703,-16.333333 -16.171876,-16.333333s-16.171876,7.327133 -16.171876,16.333333l0,55.468c0,20.095717 11.238645,38.480925 29.051966,47.47855zm-20.966028,-102.946551c0,-4.5031 3.627352,-8.166667 8.085938,-8.166667s8.085938,3.663567 8.085938,8.166667l0,34.855742c-4.930805,2.879567 -8.085938,8.248333 -8.085938,14.144258c0,4.361408 1.682684,8.4623 4.737955,11.547667l20.704044,20.914833c1.578375,1.59495 4.138383,1.59495 5.717567,0.000408c1.578779,-1.594133 1.579184,-4.1797 0.000404,-5.77465l-20.704044,-20.915242c-1.528647,-1.543092 -2.369988,-3.593333 -2.369988,-5.773017c0,-3.456133 2.165818,-6.5513 5.390086,-7.701575c0.000404,0 0.001213,-0.000408 0.001617,-0.000817c0.000809,-0.000408 0.002021,-0.000408 0.00283,-0.000817c2.78884,-0.9996 6.096797,-0.40425 8.408162,1.9306l9.0797,9.166675c9.374028,9.467617 29.854495,13.029917 29.895329,13.04135c8.172457,0.827283 14.335155,7.708925 14.335155,16.006667l0,49.224584l-34.769532,0l0,-20.416667c0,-1.546767 -0.8656,-2.960825 -2.234953,-3.652133l-21.69821,-10.955583c-15.162346,-7.659108 -24.582059,-23.052867 -24.582059,-40.174284l0,-55.468z"/>
    <circle stroke="null" id="svg_9" r="3.747768" cy="181.266666" cx="190.572271"/>
    <path stroke="null" id="svg_10" d="m195.828131,71.833332c-8.917172,0 -16.171876,7.327133 -16.171876,16.333333l0,32.666667c-4.318295,0 -8.378649,1.699483 -11.433112,4.78485l-9.081317,9.167492c-4.973256,5.022908 -17.570338,9.937608 -24.716286,10.660767l-0.267645,0.0294c-12.322969,1.247867 -21.614925,11.6228 -21.614925,24.132909l0,53.307917c0,2.254817 1.810441,4.083333 4.042969,4.083333l42.85547,0c2.232527,0 4.042969,-1.828517 4.042969,-4.083333l0,-21.976092l13.232637,-6.68115c1.996822,-1.008583 2.806629,-3.461033 1.80842,-5.4782c-0.998613,-2.016758 -3.427225,-2.835467 -5.424047,-1.826475l-15.467995,7.809783c-1.369354,0.691308 -2.234953,2.105367 -2.234953,3.652133l0,20.416667l-34.769532,0l0,-49.224584c0,-8.297742 6.162697,-15.179383 14.36669,-16.009933l0.267645,-0.0294c8.769604,-0.888125 23.289927,-6.639908 29.595341,-13.008275l9.081317,-9.167492c2.317834,-2.341792 5.63226,-2.924483 8.407354,-1.930192c0.000809,0.000408 0.002021,0.000408 0.00283,0.000817c0.000404,0 0.001213,0.000408 0.001617,0.000817c3.224672,1.150275 5.39049,4.245442 5.39049,7.701575c0,2.179683 -0.841342,4.229925 -2.369584,5.773833l-20.704044,20.914833c-1.578779,1.594542 -1.578375,4.180108 0.000404,5.77465c1.577971,1.594542 4.138787,1.594542 5.717567,-0.000408l20.704044,-20.914425c3.054867,-3.086183 4.737551,-7.187075 4.737551,-11.548483c0,-5.895925 -3.155133,-11.264692 -8.085938,-14.144258l0,-34.855742c0,-4.5031 3.627352,-8.166667 8.085938,-8.166667s8.085938,3.663567 8.085938,8.166667l0,55.468c0,7.470867 -1.866639,14.887833 -5.398576,21.448933c-1.066939,1.981642 -0.341227,4.460633 1.620826,5.537817c1.961244,1.077183 4.416943,0.345042 5.483074,-1.637008c4.174365,-7.754658 6.380613,-16.52035 6.380613,-25.349742l0,-55.468c0,-9.0062 -7.254703,-16.333333 -16.171876,-16.333333z"/>
   </g>
  </g>
  <path transform="rotate(67.19094848632812 540.0000000000001,452.95312499999994) " stroke="#000" d="m501.500003,461.453125c2.333333,0 3.5,0 4.666667,0c8.166666,0 19.833333,0 25.666666,0c16.333333,0 29.166666,0 41.999999,-11.333333l2.333333,0l2.333333,-5.666667" id="svg_11" stroke-width="1.5" fill="none"/>
  <path d="m-257.5,180.453125c257.5,-180.453125 257.5,-180.453125 257.5,-180.453125l-258.5,180.453125l-6,0l-14,1" id="svg_13" stroke-width="1.5" fill="none"/>
  <polyline stroke-linecap="round" id="svg_14" points="-166.5,183.453125 -162.5,184.453125 -162.5,185.453125 " stroke-width="1.5" fill="none"/>
  <path d="m-196.5,120.453125c4,0 11.972183,0.294029 21,1c21.955688,1.716911 36.026703,3.178177 62,2c22.068031,-1.00103 37.056648,-3.917534 40,-6c4.081696,-2.887863 5,-4 6,-5c1,-1 1,-2 1,-3c0,-2 0,-3 -2,-5l-1,0l0,-1" id="svg_15" stroke-width="1.5" fill="none"/>
  <path d="m2.5,87.453125c-2.5,-87.453125 -2.5,-87.453125 -2.5,-87.453125l2.5,86.453125l0,-1l1,0" id="svg_16" stroke-width="1.5" fill="none"/>
  <polyline stroke="#000000" stroke-opacity="0" stroke-linecap="round" id="svg_17" points="11.5,63.453125 11.5,62.453125 " stroke-width="1.5" fill="none"/>
  <path id="svg_18" d="m335.5,75.453125" opacity="0.5" stroke-opacity="0" stroke-width="1.5" stroke="#000000" fill="none"/>
  <path id="svg_19" d="m91.5,81.453125c14,3 131,-15 130.5,-15.453125" opacity="0.5" stroke-opacity="0" stroke-width="1.5" stroke="#000000" fill="none"/>
  <text style="cursor: move;" stroke="#000000" transform="matrix(3.1779680429581307,0,0,5.781950929728281,-814.2096677111979,-391.71533556273164) " xml:space="preserve" text-anchor="start" font-family="'Courier New', Courier, monospace" font-size="42" id="svg_21" y="98.799029" x="325" stroke-opacity="0" stroke-width="0" fill="#000000">Carity</text>
 </g>
</svg>