<svg height="512" viewBox="0 0 512 512" width="512" xmlns="http://www.w3.org/2000/svg"><g id="Filled_cutting_stroke_EX" data-name="Filled cutting stroke EX"><g><g><g><path d="m458 176h-10v-40h-176v40h-10a30 30 0 0 0 -30 30v242a40 40 0 0 0 40 40h176a40 40 0 0 0 40-40v-242a30 30 0 0 0 -30-30z" fill="#f7e1db"/><path d="m232 248h256v192h-256z" fill="#fa5d3f"/><path d="m296 288h152v72h-152z" fill="#fac850"/><path d="m268 24h184a20 20 0 0 1 20 20v82a10 10 0 0 1 -10 10h-204a10 10 0 0 1 -10-10v-82a20 20 0 0 1 20-20z" fill="#fa5d3f"/></g><path d="m168 112 14.142 25.858 25.858 14.142-25.858 14.142-14.142 25.858-14.142-25.858-25.858-14.142 25.858-14.142z" fill="#dcf9fe"/></g><g><rect fill="#79d8eb" height="256" rx="70" width="144" x="128" y="232"/><path d="m184 352h88v32h-72z" fill="#fff9f8"/></g><path d="m70.101 69.899-9.9 18.101-18.1 9.899 18.1 9.9 9.9 18.1 9.899-18.1 18.101-9.9-18.101-9.899z" fill="#dcf9fe"/><g><circle cx="112" cy="400" fill="#fac850" r="88"/><path d="m96 313.459h32v173.082h-32z" fill="#fffdfa" transform="matrix(.707 -.707 .707 .707 -250.039 196.353)"/><g><path d="m296 352v16h152a8 8 0 0 0 8-8v-72a8 8 0 0 0 -8-8h-152v16h144v56z"/><path d="m480 432h-184v16h184a32.0361 32.0361 0 0 1 -32 32h-176a32.2765 32.2765 0 0 1 -6.4082-.64l-3.1836 15.68a48.3015 48.3015 0 0 0 9.5918.96h176a48.0543 48.0543 0 0 0 48-48v-152h-16z"/><path d="m458 168h-2v-24h6a18.02 18.02 0 0 0 18-18v-82a28.0314 28.0314 0 0 0 -28-28h-148v16h148a12.0137 12.0137 0 0 1 12 12v82a2.002 2.002 0 0 1 -2 2h-204a2.002 2.002 0 0 1 -2-2v-82a12.0137 12.0137 0 0 1 12-12h20v-16h-20a28.0314 28.0314 0 0 0 -28 28v82a18.02 18.02 0 0 0 18 18h6v24h-2a38.0433 38.0433 0 0 0 -38 38v2h16v-2a22.0248 22.0248 0 0 1 22-22h196a22.0248 22.0248 0 0 1 22 22v34h-200v16h200v24h16v-74a38.0433 38.0433 0 0 0 -38-38zm-178 0v-24h160v24z"/><path d="m272 48h16v64h-16z"/><path d="m304 48h16v64h-16z"/><path d="m336 48h16v64h-16z"/><path d="m368 48h16v64h-16z"/><path d="m400 48h16v64h-16z"/><path d="m432 48h16v64h-16z"/><path d="m296 392h48v16h-48z"/><path d="m360 392h96v16h-96z"/><path d="m124.1611 159.019 23.8023 13.0176 13.0176 23.8023a8 8 0 0 0 14.038 0l13.0176-23.8023 23.8023-13.0176a8 8 0 0 0 0-14.038l-23.8023-13.0176-13.0176-23.8023a8 8 0 0 0 -14.038 0l-13.0176 23.8023-23.8023 13.0176a8 8 0 0 0 0 14.038zm33.5357-14.142a8.004 8.004 0 0 0 3.18-3.18l7.1232-13.0246 7.123 13.0244a8.004 8.004 0 0 0 3.18 3.18l13.0246 7.1232-13.0244 7.123a8.004 8.004 0 0 0 -3.18 3.18l-7.1232 13.0246-7.123-13.0244a8.004 8.004 0 0 0 -3.18-3.18l-13.0246-7.1232z"/><path d="m280 302a78.0884 78.0884 0 0 0 -78-78h-4a78.2129 78.2129 0 0 0 -76.44 62.4087l15.6806 3.1826a62.161 62.161 0 0 1 60.7594-49.5913h4a62.07 62.07 0 0 1 62 62v42h-48v16h48v16h-40v16h40v26a62.07 62.07 0 0 1 -62 62h-4a61.9429 61.9429 0 0 1 -19.4878-3.1221l-5.0244 15.19a77.92 77.92 0 0 0 24.5122 3.9321h4a78.0884 78.0884 0 0 0 78-78z"/><path d="m38.2617 104.9185 16.0449 8.7749 8.7749 16.0449a8.0005 8.0005 0 0 0 14.0381 0l8.7749-16.0449 16.045-8.7749a8.0005 8.0005 0 0 0 0-14.0381l-16.045-8.7749-8.7745-16.045a8.0005 8.0005 0 0 0 -14.0381 0l-8.7749 16.045-16.0453 8.7745a8.0005 8.0005 0 0 0 0 14.0381zm25.7783-9.8995a8.0031 8.0031 0 0 0 3.18-3.18l2.88-5.2671 2.88 5.2671a8.0022 8.0022 0 0 0 3.18 3.18l5.2671 2.88-5.2671 2.88a8.0031 8.0031 0 0 0 -3.18 3.18l-2.88 5.2671-2.88-5.2661a8.004 8.004 0 0 0 -3.18-3.18l-5.2671-2.88z"/><path d="m208 400a96 96 0 1 0 -96 96 96.1087 96.1087 0 0 0 96-96zm-16 0a79.5123 79.5123 0 0 1 -9.0742 36.9849l-107.9104-107.9109a79.9822 79.9822 0 0 1 116.9846 70.926zm-29.3964 61.918-68.9469-68.9473-11.3134 11.3135 66.6413 66.6418a79.9821 79.9821 0 0 1 -107.91-107.9109l26.6416 26.6416 11.3135-11.3134-28.9475-28.9472a80.7171 80.7171 0 0 1 11.3142-11.3141l112.5214 112.5218a80.7124 80.7124 0 0 1 -11.3142 11.3142z"/></g></g></g></g></svg>