<svg height="512" viewBox="0 0 64 64" width="512" xmlns="http://www.w3.org/2000/svg"><g id="Filled_outline" data-name="Filled outline"><path d="m35.741 47.792-14.741-14.792v-24h-16v30l19.833 19.734a7.7 7.7 0 0 0 10.908 0 7.755 7.755 0 0 0 0-10.942z" fill="#4f97d5"/><path d="m28.259 16.208 14.741 14.792v24h16v-30l-19.833-19.734a7.7 7.7 0 0 0 -10.908 0 7.755 7.755 0 0 0 0 10.942z" fill="#4f97d5"/><path d="m5 3h4v6h-4z" fill="#dc93bf"/><path d="m9 3h4v6h-4z" fill="#ce78af"/><path d="m13 3h4v6h-4z" fill="#dc93bf"/><path d="m17 3h4v6h-4z" fill="#ce78af"/><path d="m5 9h16v4h-16z" fill="#cdeef6"/><path d="m13 17.778a2.156 2.156 0 0 1 3.317 0 2.112 2.112 0 0 1 0 3.111l-3.317 3.111-3.317-3.111a2.112 2.112 0 0 1 0-3.111 2.156 2.156 0 0 1 3.317 0z" fill="#dc93bf"/><path d="m5 30v9l6.364 6.364a9 9 0 0 0 -6.364-15.364z" fill="#cdeef6"/><path d="m17.222 45.879h15.556v4.243h-15.556z" fill="#dc93bf" transform="matrix(.707 -.707 .707 .707 -26.619 31.737)"/><path d="m20.222 48.879h15.556v4.243h-15.556z" fill="#cdeef6" transform="matrix(.707 -.707 .707 .707 -27.861 34.737)"/><path d="m55 55h4v6h-4z" fill="#ce78af" transform="matrix(-1 0 0 -1 114 116)"/><path d="m51 55h4v6h-4z" fill="#dc93bf" transform="matrix(-1 0 0 -1 106 116)"/><path d="m47 55h4v6h-4z" fill="#ce78af" transform="matrix(-1 0 0 -1 98 116)"/><path d="m43 55h4v6h-4z" fill="#dc93bf" transform="matrix(-1 0 0 -1 90 116)"/><path d="m43 51h16v4h-16z" fill="#cdeef6" transform="matrix(-1 0 0 -1 102 106)"/><path d="m51 46.222a2.157 2.157 0 0 1 -3.317 0 2.112 2.112 0 0 1 0-3.111l3.317-3.111 3.317 3.111a2.112 2.112 0 0 1 0 3.111 2.157 2.157 0 0 1 -3.317 0z" fill="#dc93bf"/><path d="m59 34v-9l-6.364-6.364a9 9 0 0 0 6.364 15.364z" fill="#cdeef6"/><path d="m31.222 13.879h15.556v4.243h-15.556z" fill="#dc93bf" transform="matrix(.707 -.707 .707 .707 .109 32.263)"/><path d="m28.222 10.879h15.556v4.243h-15.556z" fill="#cdeef6" transform="matrix(.707 -.707 .707 .707 1.352 29.263)"/><path d="m13 16.48a3.231 3.231 0 0 0 -4.069.639 3.137 3.137 0 0 0 .069 4.5l3.317 3.11a1 1 0 0 0 1.368 0l3.385-3.18a3.112 3.112 0 0 0 0-4.43 3.228 3.228 0 0 0 -4.07-.639zm2.633 3.68-2.633 2.47-2.565-2.4a1.139 1.139 0 0 1 0-1.792 1.157 1.157 0 0 1 1.813 0 1.033 1.033 0 0 0 1.5 0 1.181 1.181 0 0 1 1.813 0c.585.662.585 1.13.072 1.722z"/><path d="m22 3a1 1 0 0 0 -1-1h-16a1 1 0 0 0 -1 1v36a1 1 0 0 0 .294.709l19.831 19.731a8.7 8.7 0 0 0 12.324 0 8.763 8.763 0 0 0 0-12.353l-14.449-14.5zm-4 1h2v4h-2zm-4 0h2v4h-2zm-4 0h2v4h-2zm-4 0h2v4h-2zm0 6h14v2h-14zm0 28.584v-7.515a8.008 8.008 0 0 1 7 7.931 7.933 7.933 0 0 1 -1.673 4.885zm29.032 9.916a6.761 6.761 0 0 1 0 9.529 6.7 6.7 0 0 1 -9.494 0l-.076-.074 9.511-9.511zm-1.47-1.475-9.516 9.515-1.59-1.582 9.523-9.523zm-2.994-3.006-9.53 9.53-1.59-1.582 9.536-9.536zm-3-3.005-9.542 9.542-5.273-5.246a9.923 9.923 0 0 0 2.247-6.31 10.013 10.013 0 0 0 -9-9.949v-15.051h14v19a1 1 0 0 0 .292.706z"/><path d="m51 47.52a3.145 3.145 0 0 0 1.659.48 3.221 3.221 0 0 0 2.41-1.119 3.137 3.137 0 0 0 -.068-4.5l-3.317-3.11a1 1 0 0 0 -1.368 0l-3.385 3.18a3.112 3.112 0 0 0 0 4.43 3.227 3.227 0 0 0 4.069.639zm-2.633-3.68 2.633-2.47 2.565 2.4a1.139 1.139 0 0 1 0 1.792 1.181 1.181 0 0 1 -1.813 0 1 1 0 0 0 -1.5 0 1.181 1.181 0 0 1 -1.813 0c-.585-.662-.585-1.13-.072-1.722z"/><path d="m42 61a1 1 0 0 0 1 1h16a1 1 0 0 0 1-1v-36a1 1 0 0 0 -.294-.709l-19.831-19.731a8.7 8.7 0 0 0 -12.324 0 8.764 8.764 0 0 0 0 12.354l14.449 14.499zm4-1h-2v-4h2zm4 0h-2v-4h2zm4 0h-2v-4h2zm4 0h-2v-4h2zm0-6h-14v-2h14zm0-28.584v7.515a7.986 7.986 0 0 1 -5.327-12.816zm-29.032-9.916a6.762 6.762 0 0 1 0-9.53 6.7 6.7 0 0 1 9.494 0l.076.074-9.512 9.516zm1.469 1.475 9.517-9.515 1.59 1.582-9.523 9.523zm3 3 9.53-9.53 1.59 1.582-9.537 9.537zm2.995 3 9.542-9.542 5.273 5.246a10 10 0 0 0 6.753 16.27v15.051h-14v-19a1 1 0 0 0 -.292-.706z"/></g></svg>